<svg id="svg" version="1.1" width="400" height="400" viewBox="0 0 400 400" xmlns="http://www.w3.org/2000/svg" xmlns:xlink="http://www.w3.org/1999/xlink"><g id="svgg"><path id="path0" d="M128.230 113.656 C 128.230 113.711,128.696 114.178,129.266 114.693 L 130.303 115.630 129.366 114.593 C 128.493 113.627,128.230 113.410,128.230 113.656 M133.971 119.139 C 134.566 119.753,135.125 120.255,135.213 120.255 C 135.301 120.255,134.885 119.753,134.290 119.139 C 133.695 118.525,133.136 118.022,133.049 118.022 C 132.961 118.022,133.376 118.525,133.971 119.139 M143.860 128.389 C 144.990 129.530,145.986 130.463,146.074 130.463 C 146.162 130.463,145.309 129.530,144.179 128.389 C 143.048 127.249,142.052 126.316,141.964 126.316 C 141.876 126.316,142.729 127.249,143.860 128.389 M201.396 138.078 L 209.007 145.694 227.550 145.925 C 248.169 146.181,247.906 146.153,251.479 148.456 C 263.461 156.178,260.701 174.927,247.062 178.456 C 245.493 178.862,242.767 178.947,231.432 178.947 L 217.703 178.947 217.863 188.596 L 218.022 198.246 218.107 188.756 L 218.191 179.266 225.762 179.340 L 233.333 179.413 226.171 179.505 C 217.895 179.612,218.105 179.533,219.408 182.053 C 219.611 182.445,219.777 183.191,219.777 183.709 C 219.777 184.227,219.920 184.740,220.096 184.848 C 220.271 184.957,220.415 184.775,220.415 184.444 C 220.415 183.322,224.234 184.709,224.828 186.047 C 224.887 186.179,225.066 186.207,225.227 186.108 C 225.387 186.008,225.518 186.088,225.518 186.284 C 225.518 186.480,225.636 186.568,225.779 186.479 C 225.923 186.391,226.241 186.597,226.488 186.939 C 226.734 187.280,227.102 187.560,227.306 187.560 C 227.510 187.560,227.748 187.832,227.835 188.165 C 227.922 188.498,228.943 189.408,230.104 190.187 C 231.265 190.965,232.119 191.698,232.003 191.814 C 231.887 191.930,232.111 192.026,232.502 192.026 C 232.894 192.026,233.123 192.168,233.014 192.344 C 232.897 192.534,233.277 192.663,233.952 192.663 C 234.577 192.663,235.088 192.807,235.088 192.982 C 235.088 193.158,235.339 193.311,235.646 193.322 C 236.045 193.336,235.982 193.431,235.426 193.653 C 234.998 193.824,234.250 193.876,233.763 193.769 C 232.492 193.490,232.508 193.264,232.610 210.207 L 232.702 225.359 232.778 209.809 L 232.855 194.258 239.004 194.258 C 248.654 194.258,252.828 193.463,258.291 190.582 C 278.826 179.754,280.320 149.350,260.963 136.228 C 252.886 130.752,250.837 130.475,218.344 130.468 L 193.785 130.463 201.396 138.078 M148.644 132.855 C 149.775 133.995,150.771 134.928,150.859 134.928 C 150.946 134.928,150.094 133.995,148.963 132.855 C 147.833 131.715,146.837 130.781,146.749 130.781 C 146.661 130.781,147.514 131.715,148.644 132.855 M156.459 140.351 C 157.678 141.579,158.747 142.584,158.835 142.584 C 158.922 142.584,157.997 141.579,156.778 140.351 C 155.560 139.123,154.491 138.118,154.403 138.118 C 154.315 138.118,155.241 139.123,156.459 140.351 M162.041 145.554 C 162.041 145.609,162.508 146.076,163.078 146.591 L 164.115 147.528 163.178 146.491 C 162.305 145.525,162.041 145.308,162.041 145.554 M167.943 151.515 C 169.866 153.445,171.512 155.024,171.600 155.024 C 171.688 155.024,170.185 153.445,168.262 151.515 C 166.338 149.585,164.692 148.006,164.604 148.006 C 164.516 148.006,166.019 149.585,167.943 151.515 M178.309 161.563 C 180.321 163.581,182.039 165.231,182.127 165.231 C 182.214 165.231,180.640 163.581,178.628 161.563 C 176.617 159.545,174.899 157.895,174.811 157.895 C 174.723 157.895,176.298 159.545,178.309 161.563 M183.413 166.667 C 184.008 167.281,184.567 167.783,184.655 167.783 C 184.742 167.783,184.327 167.281,183.732 166.667 C 183.137 166.053,182.578 165.550,182.490 165.550 C 182.403 165.550,182.818 166.053,183.413 166.667 M187.560 170.423 C 187.560 170.471,188.672 171.583,190.032 172.895 L 192.504 175.279 190.120 172.807 C 187.905 170.511,187.560 170.189,187.560 170.423 M198.565 181.180 C 200.488 183.110,202.134 184.689,202.222 184.689 C 202.310 184.689,200.807 183.110,198.884 181.180 C 196.960 179.250,195.314 177.671,195.226 177.671 C 195.138 177.671,196.641 179.250,198.565 181.180 M206.539 188.836 C 208.287 190.590,209.789 192.026,209.876 192.026 C 209.964 192.026,208.606 190.590,206.858 188.836 C 205.110 187.081,203.608 185.646,203.521 185.646 C 203.433 185.646,204.791 187.081,206.539 188.836 M213.716 195.634 C 213.716 195.689,214.183 196.156,214.753 196.671 L 215.789 197.608 214.853 196.571 C 213.979 195.605,213.716 195.388,213.716 195.634 M232.616 229.187 C 232.620 229.888,232.685 230.138,232.761 229.741 C 232.838 229.344,232.835 228.770,232.755 228.465 C 232.675 228.160,232.613 228.485,232.616 229.187 M217.703 256.124 C 215.187 256.312,215.067 256.346,216.730 256.399 C 218.221 256.446,218.545 256.543,218.241 256.847 C 217.936 257.152,218.076 257.355,218.894 257.791 L 219.936 258.346 218.562 258.360 C 217.690 258.368,217.263 258.495,217.393 258.706 C 217.506 258.890,218.125 259.014,218.768 258.982 C 227.764 258.540,230.315 259.161,230.293 261.788 C 230.272 264.313,229.226 264.743,223.025 264.782 C 219.545 264.803,218.608 264.887,219.378 265.110 C 219.948 265.274,220.415 265.609,220.415 265.853 C 220.415 266.098,220.878 266.390,221.451 266.506 C 223.769 266.972,223.684 267.151,221.053 267.341 C 219.262 267.471,220.291 267.522,224.083 267.493 C 232.142 267.431,234.396 265.837,233.632 260.740 C 232.969 256.321,229.291 255.255,217.703 256.124 M243.062 257.392 L 243.062 259.011 250.523 259.011 C 259.017 259.011,259.227 259.068,259.544 261.429 C 259.686 262.485,259.579 262.883,258.966 263.587 L 258.214 264.451 250.640 264.522 L 243.067 264.593 243.065 269.617 L 243.062 274.641 244.657 274.641 L 246.252 274.641 246.252 271.132 L 246.252 267.624 250.046 267.624 L 253.841 267.624 256.459 271.132 L 259.078 274.641 261.157 274.641 C 263.563 274.641,263.667 275.071,260.207 270.704 C 257.668 267.499,257.754 267.815,259.294 267.353 C 263.992 265.946,264.530 258.937,260.128 256.509 C 259.324 256.066,257.878 255.964,251.116 255.877 L 243.062 255.773 243.062 257.392 M276.733 256.297 C 273.302 257.520,272.600 258.859,272.459 264.451 C 272.235 273.352,273.561 274.646,282.894 274.634 C 292.046 274.623,292.919 273.856,293.084 265.684 C 293.214 259.206,292.271 257.133,288.746 256.154 C 286.940 255.653,278.252 255.756,276.733 256.297 M304.818 259.888 C 306.681 262.125,308.418 264.273,308.677 264.662 C 309.128 265.336,308.990 265.565,305.715 269.606 C 303.825 271.937,302.144 274.023,301.978 274.242 C 301.744 274.551,302.134 274.640,303.709 274.635 L 305.742 274.629 308.453 271.297 C 309.944 269.465,311.248 267.960,311.351 267.954 C 311.454 267.948,312.782 269.450,314.302 271.292 L 317.066 274.641 319.166 274.641 L 321.266 274.641 320.289 273.445 C 319.752 272.787,318.020 270.677,316.442 268.757 C 313.993 265.776,313.632 265.192,313.984 264.769 C 314.210 264.497,315.740 262.624,317.384 260.606 C 319.029 258.589,320.585 256.687,320.842 256.380 C 321.281 255.857,321.177 255.821,319.206 255.821 L 317.101 255.821 314.347 259.171 C 312.832 261.013,311.486 262.520,311.357 262.520 C 311.228 262.520,309.912 261.014,308.432 259.174 L 305.742 255.828 303.587 255.825 L 301.432 255.821 304.818 259.888 M332.542 261.369 L 336.523 266.916 336.523 270.779 L 336.523 274.641 338.278 274.641 L 340.032 274.641 340.042 270.893 L 340.053 267.145 344.021 261.722 C 348.678 255.358,348.522 255.821,346.006 255.821 L 344.006 255.821 341.345 259.653 C 339.881 261.760,338.592 263.540,338.481 263.609 C 338.369 263.678,337.057 261.962,335.566 259.795 L 332.855 255.855 330.708 255.838 L 328.562 255.821 332.542 261.369 M287.843 259.316 C 289.265 259.857,289.633 261.122,289.633 265.463 C 289.633 271.246,289.063 271.770,282.775 271.770 C 276.442 271.770,275.776 271.075,275.966 264.661 L 276.077 260.872 277.119 259.942 L 278.160 259.011 282.600 259.011 C 285.042 259.011,287.401 259.149,287.843 259.316 M213.716 265.763 C 213.716 266.924,213.855 266.882,214.156 265.630 C 214.281 265.109,214.234 264.753,214.041 264.753 C 213.862 264.753,213.716 265.207,213.716 265.763 M191.946 266.900 C 192.691 266.967,193.911 266.967,194.657 266.900 C 195.403 266.833,194.793 266.778,193.301 266.778 C 191.810 266.778,191.200 266.833,191.946 266.900 M216.700 270.335 C 216.699 271.914,216.753 272.600,216.820 271.860 C 216.887 271.119,216.888 269.828,216.822 268.989 C 216.756 268.150,216.701 268.756,216.700 270.335 M214.274 274.547 C 214.669 274.623,215.315 274.623,215.710 274.547 C 216.104 274.471,215.781 274.409,214.992 274.409 C 214.203 274.409,213.880 274.471,214.274 274.547 " stroke="none" fill="#04b5fa" fill-rule="evenodd"></path><path id="path1" d="M0.000 200.000 L 0.000 400.000 200.000 400.000 L 400.000 400.000 400.000 200.000 L 400.000 0.000 200.000 0.000 L 0.000 0.000 0.000 200.000 M140.989 125.065 C 152.178 135.538,163.330 146.185,173.200 155.818 C 185.284 167.611,204.784 186.510,213.791 195.156 L 217.216 198.443 217.300 188.616 L 217.384 178.788 232.057 178.627 C 248.628 178.446,248.338 178.488,252.355 175.692 C 262.055 168.941,260.678 153.073,249.939 147.841 C 246.565 146.197,245.215 146.098,226.313 146.095 L 209.086 146.093 201.513 138.514 C 197.347 134.346,193.939 130.825,193.939 130.689 C 193.939 129.984,247.931 130.624,250.704 131.362 C 274.809 137.775,283.103 167.980,265.573 185.510 C 259.035 192.048,252.949 194.252,240.750 194.498 L 233.174 194.651 233.174 215.986 C 233.174 229.838,233.063 237.321,232.858 237.321 C 232.685 237.321,222.203 227.035,209.566 214.464 C 196.929 201.893,177.370 182.612,166.102 171.618 L 145.614 151.628 145.533 187.297 C 145.488 206.915,145.339 222.967,145.201 222.967 C 145.063 222.967,144.397 222.356,143.721 221.611 C 143.045 220.865,139.283 216.997,135.361 213.015 L 128.230 205.775 128.230 159.442 L 128.230 113.108 129.426 114.235 C 130.084 114.855,135.287 119.729,140.989 125.065 M69.139 262.526 L 75.917 269.227 75.917 262.524 L 75.917 255.821 77.995 255.821 L 80.073 255.821 79.989 265.311 L 79.904 274.801 77.955 274.894 L 76.005 274.988 69.269 268.064 L 62.533 261.140 62.447 267.970 L 62.360 274.801 60.367 274.896 L 58.373 274.991 58.373 265.406 L 58.373 255.821 60.367 255.824 L 62.360 255.826 69.139 262.526 M111.580 257.496 L 111.483 259.171 103.828 259.345 C 99.617 259.440,96.140 259.548,96.101 259.584 C 95.693 259.955,95.056 261.737,95.056 262.504 L 95.056 263.477 102.233 263.477 L 109.410 263.477 109.410 265.231 L 109.410 266.986 102.191 266.986 L 94.973 266.986 95.139 268.457 C 95.453 271.248,95.546 271.277,104.171 271.388 L 111.675 271.484 111.579 273.142 L 111.483 274.801 103.509 274.801 C 92.010 274.801,90.933 273.982,90.918 265.231 C 90.904 256.700,92.103 255.822,103.765 255.822 L 111.676 255.821 111.580 257.496 M127.696 257.974 C 128.670 259.159,129.942 260.662,130.523 261.314 L 131.579 262.501 134.402 259.161 L 137.224 255.821 139.641 255.821 L 142.057 255.821 141.410 256.539 C 141.054 256.934,139.244 259.064,137.389 261.272 L 134.015 265.287 137.977 269.884 C 142.650 275.306,142.538 274.965,139.633 274.941 L 137.321 274.922 134.450 271.440 C 131.785 268.207,131.545 267.998,131.100 268.523 C 130.837 268.834,129.491 270.410,128.110 272.024 L 125.597 274.960 123.196 274.960 C 120.943 274.960,120.823 274.926,121.263 274.402 C 121.520 274.095,123.337 271.955,125.299 269.647 C 127.262 267.340,128.868 265.358,128.868 265.244 C 128.868 265.130,127.145 263.037,125.040 260.593 C 120.511 255.336,120.661 255.821,123.569 255.821 L 125.925 255.821 127.696 257.974 M155.086 262.867 L 155.183 269.913 156.078 270.682 C 157.191 271.639,165.107 271.862,166.803 270.985 C 168.085 270.322,168.102 270.215,168.102 262.653 L 168.102 255.821 170.175 255.821 L 172.249 255.821 172.242 262.919 C 172.231 274.272,171.443 275.109,160.955 274.906 C 151.791 274.729,151.118 273.967,150.929 263.560 C 150.781 255.387,150.660 255.821,153.083 255.821 L 154.989 255.821 155.086 262.867 M202.871 257.576 L 202.871 259.330 195.276 259.330 C 187.301 259.330,186.715 259.427,186.589 260.766 C 186.354 263.274,186.408 263.296,193.369 263.481 C 201.630 263.702,203.190 264.602,203.190 269.149 C 203.190 274.265,201.696 274.960,190.702 274.960 L 182.775 274.960 182.775 273.206 L 182.775 271.451 190.360 271.451 C 199.058 271.451,199.362 271.376,199.362 269.219 C 199.362 267.149,198.854 266.987,192.353 266.979 C 183.825 266.968,180.962 264.665,182.748 259.253 C 183.765 256.171,184.965 255.826,194.657 255.823 L 202.871 255.821 202.871 257.576 M230.951 256.539 C 235.206 258.689,235.127 264.894,230.814 267.237 C 230.001 267.678,228.714 267.790,223.604 267.863 C 219.822 267.916,217.369 268.075,217.344 268.266 C 217.323 268.439,217.287 270.016,217.265 271.770 L 217.225 274.960 215.311 274.960 L 213.397 274.960 213.397 269.697 L 213.397 264.434 220.850 264.434 C 229.443 264.434,229.984 264.285,229.984 261.920 C 229.984 259.494,230.035 259.509,221.318 259.330 L 213.557 259.171 213.460 257.496 L 213.364 255.821 221.447 255.821 C 229.196 255.821,229.589 255.851,230.951 256.539 M260.064 256.338 C 264.760 258.716,264.216 266.535,259.286 267.521 C 258.102 267.758,257.991 267.504,260.921 271.236 C 263.999 275.157,263.979 274.960,261.287 274.960 L 259.096 274.960 256.459 271.470 L 253.823 267.981 250.328 267.882 C 246.131 267.763,246.571 267.339,246.571 271.505 L 246.571 274.960 244.657 274.960 L 242.743 274.960 242.743 269.697 L 242.743 264.434 250.196 264.434 C 258.835 264.434,259.330 264.294,259.330 261.859 C 259.330 259.385,259.137 259.330,250.399 259.330 L 242.743 259.330 242.743 257.576 L 242.743 255.821 250.893 255.821 C 257.774 255.821,259.202 255.902,260.064 256.338 M289.806 256.421 C 292.846 257.802,293.551 259.688,293.407 266.054 C 293.232 273.773,291.865 274.953,283.094 274.955 C 273.584 274.958,271.867 273.306,272.143 264.425 C 272.294 259.591,273.028 257.905,275.569 256.564 C 277.499 255.544,287.651 255.442,289.806 256.421 M308.595 259.027 C 311.654 262.859,311.077 262.861,314.195 259.011 L 316.778 255.821 319.157 255.821 L 321.535 255.821 317.965 260.207 C 316.002 262.620,314.275 264.756,314.127 264.955 C 313.862 265.313,314.453 266.105,319.362 271.969 C 322.008 275.130,322.011 274.960,319.305 274.960 L 317.080 274.960 314.644 272.010 C 313.305 270.387,312.017 268.855,311.781 268.607 C 311.294 268.092,311.445 267.948,307.917 272.329 L 305.798 274.960 303.617 274.960 C 300.872 274.960,300.773 275.288,305.143 269.904 L 308.851 265.335 308.113 264.326 C 307.707 263.771,306.039 261.707,304.405 259.739 C 300.855 255.461,300.915 255.818,303.748 255.838 L 306.061 255.854 308.595 259.027 M335.666 259.675 L 338.379 263.528 339.623 261.828 C 340.307 260.893,341.553 259.159,342.391 257.974 L 343.916 255.821 346.121 255.821 C 348.761 255.821,348.728 255.649,346.615 258.477 C 345.674 259.736,343.880 262.196,342.628 263.945 L 340.351 267.125 340.351 271.058 L 340.351 274.991 338.357 274.896 L 336.364 274.801 336.332 271.090 C 336.294 266.546,336.645 267.388,332.232 261.251 C 327.877 255.196,328.048 255.821,330.751 255.821 L 332.953 255.821 335.666 259.675 M277.168 260.263 C 276.241 261.190,276.236 261.216,276.236 265.032 C 276.236 271.158,276.550 271.451,283.103 271.451 L 287.449 271.451 288.382 270.519 L 289.314 269.587 289.314 265.241 C 289.314 259.206,289.448 259.330,282.925 259.330 L 278.101 259.330 277.168 260.263 " stroke="none" fill="#04040c" fill-rule="evenodd"></path><path id="path2" d="M58.692 265.231 L 58.692 274.641 60.447 274.641 L 62.201 274.641 62.201 267.706 L 62.201 260.771 69.141 267.706 L 76.082 274.641 77.913 274.641 L 79.745 274.641 79.745 265.231 L 79.745 255.821 77.990 255.821 L 76.236 255.821 76.236 262.756 L 76.236 269.692 69.296 262.756 L 62.355 255.821 60.524 255.821 L 58.692 255.821 58.692 265.231 M95.694 256.196 C 92.120 257.212,91.146 259.299,91.285 265.648 C 91.404 271.074,91.784 272.241,93.885 273.633 L 95.167 274.482 103.245 274.577 L 111.324 274.672 111.324 273.221 L 111.324 271.770 104.864 271.769 C 96.125 271.766,94.955 271.368,94.916 268.385 L 94.896 266.938 102.042 266.882 L 109.187 266.826 109.311 266.029 C 109.663 263.757,109.855 263.817,101.989 263.722 L 94.896 263.636 94.925 262.259 C 94.948 261.214,95.161 260.674,95.809 260.026 L 96.664 259.171 103.994 259.074 L 111.324 258.978 111.324 257.400 L 111.324 255.821 104.067 255.850 C 100.076 255.866,96.308 256.022,95.694 256.196 M124.785 260.050 C 126.767 262.376,128.574 264.515,128.800 264.803 C 129.158 265.258,128.684 265.939,125.200 269.984 L 121.188 274.641 123.407 274.641 L 125.626 274.641 128.443 271.313 C 129.992 269.482,131.360 267.975,131.482 267.963 C 131.605 267.952,132.968 269.447,134.513 271.285 L 137.321 274.627 139.493 274.634 C 142.083 274.642,142.256 275.091,137.577 269.653 C 135.594 267.348,133.971 265.365,133.971 265.246 C 133.971 265.128,135.502 263.244,137.373 261.060 C 142.263 255.353,142.064 255.821,139.595 255.821 L 137.527 255.821 134.594 259.171 C 132.982 261.013,131.572 262.513,131.461 262.503 C 131.350 262.494,129.991 260.987,128.440 259.154 L 125.621 255.821 123.400 255.821 L 121.180 255.821 124.785 260.050 M151.255 263.262 L 151.356 270.703 152.254 272.059 C 153.763 274.337,154.818 274.626,161.653 274.634 C 171.510 274.646,171.930 274.170,171.930 262.978 L 171.930 255.821 170.175 255.821 L 168.421 255.821 168.421 262.505 C 168.421 271.712,168.539 271.538,162.182 271.714 C 154.874 271.917,154.705 271.702,154.705 262.211 L 154.705 255.821 152.929 255.821 L 151.154 255.821 151.255 263.262 M186.183 256.284 C 181.915 257.806,181.391 263.858,185.328 266.171 C 186.346 266.769,186.901 266.820,191.707 266.758 C 198.783 266.666,200.240 267.266,199.556 269.992 C 199.156 271.584,197.938 271.805,190.110 271.702 C 182.353 271.601,182.791 271.478,182.779 273.764 L 182.775 274.641 191.105 274.641 C 199.078 274.641,199.488 274.611,200.674 273.944 C 203.939 272.109,204.028 267.000,200.835 264.613 C 200.038 264.017,199.377 263.940,193.790 263.796 C 186.893 263.617,186.279 263.424,186.289 261.434 C 186.300 259.168,186.887 259.011,195.354 259.011 L 202.552 259.011 202.552 257.416 L 202.552 255.821 194.976 255.835 C 189.425 255.846,187.075 255.965,186.183 256.284 " stroke="none" fill="#f4f4f4" fill-rule="evenodd"></path><path id="path3" d="M128.243 159.580 C 128.264 184.797,128.396 205.357,128.536 205.271 C 128.903 205.044,130.463 206.690,130.463 207.304 C 130.463 207.986,140.778 218.279,141.135 217.954 C 141.286 217.816,141.320 217.862,141.209 218.056 C 141.099 218.250,141.394 218.752,141.866 219.172 C 142.513 219.748,142.608 219.779,142.255 219.298 C 141.822 218.709,141.829 218.693,142.341 219.095 C 142.646 219.334,142.829 219.637,142.748 219.768 C 142.667 219.899,143.169 220.637,143.864 221.407 L 145.127 222.807 145.182 187.560 C 145.212 168.174,145.216 152.061,145.190 151.754 C 145.110 150.806,145.158 150.849,159.057 164.511 C 166.508 171.834,172.775 177.922,172.984 178.039 C 173.194 178.156,176.732 181.638,180.846 185.777 C 184.961 189.915,188.406 193.303,188.502 193.305 C 188.598 193.307,198.526 203.140,210.566 215.155 C 222.605 227.171,232.653 236.999,232.894 236.997 C 233.262 236.993,233.263 236.947,232.901 236.718 C 232.599 236.526,232.575 236.377,232.821 236.225 C 233.074 236.069,233.153 230.100,233.099 215.053 L 233.023 194.099 232.855 209.729 L 232.686 225.359 232.616 209.888 C 232.543 193.808,232.570 193.457,233.850 193.778 C 234.276 193.885,234.980 193.830,235.414 193.657 C 235.971 193.435,236.039 193.336,235.646 193.322 C 235.339 193.311,235.088 193.158,235.088 192.982 C 235.088 192.807,234.577 192.663,233.952 192.663 C 233.277 192.663,232.897 192.534,233.014 192.344 C 233.123 192.168,232.894 192.026,232.502 192.026 C 232.111 192.026,231.887 191.930,232.003 191.814 C 232.119 191.698,231.265 190.965,230.104 190.187 C 228.943 189.408,227.922 188.498,227.835 188.165 C 227.748 187.832,227.510 187.560,227.306 187.560 C 227.102 187.560,226.734 187.280,226.488 186.939 C 226.241 186.597,225.923 186.391,225.779 186.479 C 225.636 186.568,225.518 186.480,225.518 186.284 C 225.518 186.088,225.387 186.008,225.227 186.108 C 225.066 186.207,224.887 186.179,224.828 186.047 C 224.234 184.709,220.415 183.322,220.415 184.444 C 220.415 184.775,220.271 184.957,220.096 184.848 C 219.920 184.740,219.777 184.227,219.777 183.709 C 219.777 183.191,219.611 182.445,219.408 182.053 C 218.105 179.533,217.895 179.612,226.171 179.505 L 233.333 179.413 225.758 179.340 L 218.182 179.266 218.109 188.756 L 218.037 198.246 217.863 188.676 L 217.689 179.107 217.616 188.887 C 217.549 198.002,217.506 198.661,216.986 198.574 C 216.679 198.522,216.458 198.337,216.495 198.161 C 216.531 197.986,216.256 197.575,215.881 197.247 C 215.443 196.863,215.299 196.821,215.477 197.129 C 215.714 197.541,215.677 197.547,215.216 197.173 C 214.921 196.934,214.761 196.607,214.860 196.447 C 214.959 196.287,214.921 196.193,214.777 196.238 C 214.632 196.283,213.023 194.782,211.202 192.904 C 209.380 191.025,207.784 189.553,207.656 189.633 C 207.527 189.713,205.380 187.628,202.884 185.000 C 200.389 182.372,198.234 180.291,198.096 180.377 C 197.958 180.462,197.145 179.782,196.291 178.865 C 195.436 177.949,194.619 177.237,194.474 177.283 C 194.329 177.330,194.286 177.247,194.378 177.098 C 194.469 176.950,193.153 175.475,191.452 173.821 C 189.276 171.705,188.927 171.433,190.272 172.903 C 191.324 174.052,190.808 173.609,189.124 171.919 C 187.441 170.229,185.817 168.751,185.515 168.636 C 185.214 168.520,185.041 168.307,185.130 168.163 C 185.325 167.846,176.601 159.071,176.346 159.327 C 176.248 159.425,175.492 158.715,174.667 157.749 C 173.842 156.784,172.997 156.027,172.788 156.067 C 172.579 156.107,172.436 155.986,172.469 155.798 C 172.503 155.609,170.852 153.815,168.801 151.810 L 165.072 148.166 168.262 151.537 C 170.016 153.391,168.120 151.525,164.048 147.390 C 159.976 143.256,156.509 139.872,156.343 139.872 C 156.178 139.872,154.580 138.329,152.792 136.443 C 151.005 134.557,149.428 133.084,149.289 133.170 C 149.149 133.256,147.929 132.108,146.577 130.618 C 145.225 129.129,144.011 127.977,143.879 128.058 C 143.748 128.139,142.604 127.063,141.336 125.666 C 140.069 124.269,138.867 123.126,138.666 123.126 C 138.465 123.126,137.290 122.074,136.056 120.788 C 134.822 119.502,134.099 118.829,134.450 119.292 C 134.801 119.756,133.810 118.834,132.248 117.245 C 130.687 115.655,129.605 114.641,129.844 114.992 C 130.085 115.345,129.816 115.207,129.242 114.681 L 128.205 113.733 128.243 159.580 M145.136 129.346 C 145.731 129.960,146.146 130.463,146.058 130.463 C 145.970 130.463,145.412 129.960,144.817 129.346 C 144.221 128.732,143.806 128.230,143.894 128.230 C 143.982 128.230,144.540 128.732,145.136 129.346 M157.735 141.308 C 158.420 142.010,158.909 142.584,158.822 142.584 C 158.734 142.584,158.102 142.010,157.416 141.308 C 156.731 140.606,156.242 140.032,156.330 140.032 C 156.418 140.032,157.050 140.606,157.735 141.308 M213.796 146.012 C 216.384 146.066,220.618 146.066,223.206 146.012 C 225.793 145.958,223.676 145.915,218.501 145.915 C 213.325 145.915,211.208 145.958,213.796 146.012 M179.426 162.360 C 180.997 163.939,182.212 165.231,182.124 165.231 C 182.036 165.231,180.678 163.939,179.107 162.360 C 177.535 160.781,176.321 159.490,176.409 159.490 C 176.497 159.490,177.854 160.781,179.426 162.360 M183.732 166.667 C 184.327 167.281,184.742 167.783,184.655 167.783 C 184.567 167.783,184.008 167.281,183.413 166.667 C 182.818 166.053,182.403 165.550,182.490 165.550 C 182.578 165.550,183.137 166.053,183.732 166.667 M200.319 182.616 C 201.449 183.756,202.302 184.689,202.214 184.689 C 202.127 184.689,201.130 183.756,200.000 182.616 C 198.870 181.475,198.017 180.542,198.105 180.542 C 198.192 180.542,199.189 181.475,200.319 182.616 M208.931 190.909 C 209.527 191.523,209.942 192.026,209.854 192.026 C 209.766 192.026,209.208 191.523,208.612 190.909 C 208.017 190.295,207.602 189.793,207.690 189.793 C 207.778 189.793,208.336 190.295,208.931 190.909 M234.374 194.484 C 234.771 194.560,235.345 194.557,235.650 194.478 C 235.955 194.398,235.630 194.335,234.928 194.339 C 234.226 194.342,233.977 194.408,234.374 194.484 M135.702 212.382 C 138.056 214.784,140.089 216.856,140.219 216.987 C 140.350 217.118,140.396 217.225,140.320 217.225 C 140.245 217.225,138.032 215.053,135.403 212.398 C 132.773 209.744,130.802 207.671,131.022 207.793 C 131.243 207.915,133.349 209.980,135.702 212.382 M144.727 219.693 C 144.653 220.177,144.591 219.856,144.589 218.979 C 144.586 218.102,144.646 217.705,144.722 218.098 C 144.798 218.490,144.800 219.208,144.727 219.693 M232.761 229.741 C 232.685 230.138,232.620 229.888,232.616 229.187 C 232.613 228.485,232.675 228.160,232.755 228.465 C 232.835 228.770,232.838 229.344,232.761 229.741 M214.080 256.220 C 214.046 256.439,213.965 257.157,213.900 257.815 L 213.782 259.011 215.682 259.011 C 216.867 259.011,217.507 258.891,217.384 258.692 C 217.265 258.499,217.730 258.368,218.562 258.360 L 219.936 258.346 218.894 257.791 C 218.076 257.355,217.936 257.152,218.241 256.847 C 218.545 256.543,218.221 256.446,216.730 256.399 C 215.104 256.347,215.244 256.310,217.703 256.140 L 220.574 255.942 217.358 255.882 C 214.993 255.837,214.125 255.927,214.080 256.220 M242.839 257.416 C 242.839 258.381,242.899 258.776,242.972 258.293 C 243.045 257.811,243.045 257.022,242.972 256.539 C 242.899 256.057,242.839 256.451,242.839 257.416 M154.839 262.520 C 154.839 266.116,154.886 267.588,154.943 265.789 C 155.000 263.991,155.000 261.049,154.943 259.250 C 154.886 257.452,154.839 258.923,154.839 262.520 M276.038 265.391 C 276.038 267.408,276.089 268.234,276.153 267.225 C 276.216 266.216,276.216 264.565,276.153 263.557 C 276.089 262.548,276.038 263.373,276.038 265.391 M293.263 265.391 C 293.263 267.408,293.314 268.234,293.378 267.225 C 293.441 266.216,293.441 264.565,293.378 263.557 C 293.314 262.548,293.263 263.373,293.263 265.391 M213.951 264.694 C 214.243 264.880,214.264 265.230,214.031 266.043 C 213.858 266.647,213.716 268.757,213.716 270.732 L 213.716 274.322 214.912 274.347 C 215.570 274.360,216.360 274.419,216.667 274.478 C 217.171 274.574,217.225 274.247,217.225 271.104 C 217.225 269.023,217.353 267.608,217.544 267.584 C 217.719 267.562,218.006 267.508,218.182 267.464 C 218.357 267.420,219.685 267.362,221.132 267.335 C 223.792 267.285,223.986 266.960,221.611 266.534 C 220.864 266.400,220.415 266.141,220.415 265.847 C 220.415 265.574,219.976 265.277,219.378 265.144 C 218.715 264.996,220.122 264.850,223.285 264.740 C 228.119 264.572,228.066 264.567,220.893 264.506 C 216.858 264.472,213.734 264.556,213.951 264.694 M242.804 269.439 C 242.770 272.279,242.851 274.670,242.982 274.752 C 243.114 274.834,243.184 273.299,243.138 271.342 C 242.986 264.890,242.865 264.198,242.804 269.439 M245.708 264.671 C 247.076 264.731,249.229 264.731,250.493 264.670 C 251.757 264.610,250.638 264.561,248.006 264.561 C 245.375 264.562,244.341 264.611,245.708 264.671 M216.820 271.860 C 216.753 272.600,216.699 271.914,216.700 270.335 C 216.701 268.756,216.756 268.150,216.822 268.989 C 216.888 269.828,216.887 271.119,216.820 271.860 M246.373 271.132 C 246.373 273.150,246.424 273.975,246.488 272.967 C 246.551 271.958,246.551 270.307,246.488 269.298 C 246.424 268.289,246.373 269.115,246.373 271.132 M101.356 271.689 C 103.154 271.746,106.096 271.746,107.895 271.689 C 109.693 271.632,108.222 271.586,104.625 271.586 C 101.029 271.586,99.557 271.632,101.356 271.689 M161.643 271.685 C 162.388 271.752,163.608 271.752,164.354 271.685 C 165.100 271.618,164.490 271.563,162.998 271.563 C 161.507 271.563,160.897 271.618,161.643 271.685 M187.321 271.689 C 189.207 271.746,192.293 271.746,194.179 271.689 C 196.065 271.633,194.522 271.587,190.750 271.587 C 186.978 271.587,185.435 271.633,187.321 271.689 M280.795 271.688 C 281.986 271.750,283.852 271.749,284.941 271.687 C 286.031 271.625,285.056 271.575,282.775 271.575 C 280.494 271.576,279.603 271.627,280.795 271.688 M260.367 274.861 C 260.674 274.941,261.176 274.941,261.483 274.861 C 261.790 274.781,261.539 274.715,260.925 274.715 C 260.311 274.715,260.060 274.781,260.367 274.861 M280.622 274.878 C 281.894 274.939,283.975 274.939,285.247 274.878 C 286.519 274.817,285.478 274.768,282.935 274.768 C 280.391 274.768,279.350 274.817,280.622 274.878 " stroke="none" fill="#046ae9" fill-rule="evenodd"></path><path id="path4" d="M132.044 116.826 C 133.366 118.235,133.652 118.488,133.652 118.248 C 133.652 118.197,132.970 117.515,132.137 116.733 L 130.622 115.311 132.044 116.826 M137.148 121.611 C 137.930 122.444,138.612 123.126,138.663 123.126 C 138.902 123.126,138.649 122.840,137.241 121.518 L 135.726 120.096 137.148 121.611 M142.251 126.396 C 143.034 127.229,143.715 127.911,143.767 127.911 C 144.006 127.911,143.753 127.624,142.344 126.302 L 140.829 124.880 142.251 126.396 M147.528 131.419 C 148.392 132.297,149.171 133.014,149.258 133.014 C 149.346 133.014,148.711 132.297,147.847 131.419 C 146.983 130.542,146.204 129.825,146.116 129.825 C 146.029 129.825,146.664 130.542,147.528 131.419 M245.056 130.682 C 245.363 130.763,245.865 130.763,246.172 130.682 C 246.479 130.602,246.228 130.537,245.614 130.537 C 245.000 130.537,244.749 130.602,245.056 130.682 M200.159 137.161 C 203.665 140.670,206.605 143.541,206.693 143.541 C 206.780 143.541,203.984 140.670,200.478 137.161 C 196.973 133.652,194.033 130.781,193.945 130.781 C 193.858 130.781,196.654 133.652,200.159 137.161 M153.907 137.480 C 155.126 138.708,156.195 139.713,156.283 139.713 C 156.370 139.713,155.445 138.708,154.226 137.480 C 153.008 136.252,151.939 135.247,151.851 135.247 C 151.764 135.247,152.689 136.252,153.907 137.480 M162.041 145.295 C 163.701 146.962,165.131 148.325,165.219 148.325 C 165.306 148.325,164.020 146.962,162.360 145.295 C 160.701 143.628,159.271 142.265,159.183 142.265 C 159.096 142.265,160.382 143.628,162.041 145.295 M207.974 144.976 C 208.570 145.590,209.128 146.093,209.216 146.093 C 209.304 146.093,208.889 145.590,208.293 144.976 C 207.698 144.362,207.140 143.860,207.052 143.860 C 206.964 143.860,207.379 144.362,207.974 144.976 M253.907 150.658 C 253.907 150.713,254.374 151.179,254.944 151.695 L 255.981 152.632 255.044 151.595 C 254.171 150.629,253.907 150.412,253.907 150.658 M145.136 151.568 C 145.136 151.773,145.237 151.839,145.360 151.716 C 145.483 151.593,148.246 154.117,151.500 157.325 L 157.416 163.158 151.518 157.177 C 145.779 151.357,145.136 150.792,145.136 151.568 M172.249 155.183 C 174.437 157.376,176.298 159.171,176.386 159.171 C 176.474 159.171,174.756 157.376,172.568 155.183 C 170.380 152.990,168.518 151.196,168.431 151.196 C 168.343 151.196,170.061 152.990,172.249 155.183 M145.214 187.519 C 145.139 220.989,145.108 222.705,144.577 222.305 C 144.048 221.907,144.047 221.916,144.570 222.487 C 144.873 222.817,145.196 223.012,145.289 222.920 C 145.382 222.827,145.420 206.902,145.375 187.532 L 145.292 152.313 145.214 187.519 M274.759 162.679 C 274.759 164.522,274.812 165.275,274.876 164.354 C 274.941 163.433,274.941 161.926,274.876 161.005 C 274.812 160.084,274.759 160.837,274.759 162.679 M184.211 166.826 C 186.486 169.107,188.420 170.973,188.508 170.973 C 188.595 170.973,186.805 169.107,184.530 166.826 C 182.254 164.545,180.320 162.679,180.232 162.679 C 180.145 162.679,181.935 164.545,184.211 166.826 M165.710 171.292 C 167.985 173.573,169.919 175.439,170.007 175.439 C 170.094 175.439,168.304 173.573,166.029 171.292 C 163.753 169.011,161.819 167.145,161.732 167.145 C 161.644 167.145,163.434 169.011,165.710 171.292 M194.258 176.555 C 196.270 178.573,197.988 180.223,198.076 180.223 C 198.163 180.223,196.589 178.573,194.577 176.555 C 192.566 174.537,190.848 172.887,190.760 172.887 C 190.672 172.887,192.247 174.537,194.258 176.555 M177.831 183.094 C 180.634 185.901,182.999 188.198,183.087 188.198 C 183.174 188.198,180.953 185.901,178.150 183.094 C 175.347 180.287,172.982 177.990,172.894 177.990 C 172.807 177.990,175.028 180.287,177.831 183.094 M217.370 179.030 C 217.285 179.252,217.256 183.809,217.305 189.158 L 217.394 198.884 217.469 188.919 L 217.544 178.954 231.021 178.868 L 244.498 178.781 231.011 178.705 C 220.400 178.645,217.491 178.714,217.370 179.030 M204.306 186.284 C 206.054 188.038,207.556 189.474,207.644 189.474 C 207.731 189.474,206.373 188.038,204.625 186.284 C 202.877 184.530,201.376 183.094,201.288 183.094 C 201.200 183.094,202.558 184.530,204.306 186.284 M265.380 185.566 L 263.636 187.400 265.470 185.657 C 267.174 184.037,267.451 183.732,267.214 183.732 C 267.164 183.732,266.339 184.557,265.380 185.566 M212.281 193.939 C 213.499 195.167,214.568 196.172,214.656 196.172 C 214.744 196.172,213.818 195.167,212.600 193.939 C 211.381 192.711,210.312 191.707,210.224 191.707 C 210.137 191.707,211.062 192.711,212.281 193.939 M207.337 212.281 C 217.423 222.368,225.748 230.622,225.835 230.622 C 225.923 230.622,217.742 222.368,207.656 212.281 C 197.569 202.193,189.245 193.939,189.157 193.939 C 189.069 193.939,197.250 202.193,207.337 212.281 M237.400 194.493 C 238.234 194.559,239.597 194.559,240.431 194.493 C 241.264 194.427,240.582 194.373,238.915 194.373 C 237.249 194.373,236.567 194.427,237.400 194.493 M244.258 194.483 C 244.653 194.560,245.299 194.560,245.694 194.483 C 246.089 194.407,245.766 194.345,244.976 194.345 C 244.187 194.345,243.864 194.407,244.258 194.483 M128.310 201.435 C 128.314 202.137,128.379 202.387,128.455 201.990 C 128.532 201.593,128.529 201.019,128.449 200.714 C 128.369 200.409,128.307 200.734,128.310 201.435 M128.331 204.785 C 128.366 205.794,129.056 206.597,135.523 213.153 C 139.457 217.142,142.879 220.694,143.127 221.048 C 143.374 221.401,143.705 221.691,143.863 221.691 C 144.020 221.691,143.799 221.314,143.372 220.853 C 142.945 220.392,142.663 219.906,142.746 219.773 C 142.828 219.639,142.682 219.353,142.421 219.136 C 142.160 218.919,141.946 218.849,141.946 218.979 C 141.946 219.110,141.732 219.039,141.471 218.823 C 141.210 218.606,141.088 218.279,141.201 218.096 C 141.314 217.914,141.257 217.857,141.074 217.970 C 140.739 218.177,140.085 217.612,140.087 217.117 C 140.089 216.635,131.056 207.645,130.756 207.831 C 130.594 207.931,130.463 207.734,130.463 207.393 C 130.463 207.053,130.047 206.362,129.538 205.859 C 129.030 205.356,128.542 204.657,128.453 204.306 C 128.365 203.955,128.310 204.171,128.331 204.785 M135.566 212.600 C 138.106 215.144,140.111 217.225,140.024 217.225 C 139.936 217.225,137.787 215.144,135.247 212.600 C 132.708 210.056,130.702 207.974,130.790 207.974 C 130.877 207.974,133.027 210.056,135.566 212.600 M144.589 218.979 C 144.591 219.856,144.653 220.177,144.727 219.693 C 144.800 219.208,144.798 218.490,144.722 218.098 C 144.646 217.705,144.586 218.102,144.589 218.979 M231.009 235.564 C 232.012 236.601,232.878 237.385,232.935 237.306 C 232.991 237.226,232.171 236.378,231.112 235.420 L 229.187 233.679 231.009 235.564 M58.515 265.391 C 58.515 270.742,58.558 272.931,58.612 270.255 C 58.665 267.580,58.665 263.202,58.612 260.526 C 58.558 257.851,58.515 260.040,58.515 265.391 M76.053 262.520 C 76.053 266.292,76.099 267.835,76.155 265.949 C 76.211 264.063,76.211 260.977,76.155 259.091 C 76.099 257.205,76.053 258.748,76.053 262.520 M79.819 265.152 L 79.745 274.641 77.915 274.641 L 76.084 274.641 71.296 269.936 L 66.507 265.231 71.288 270.096 L 76.069 274.960 77.917 274.960 C 80.260 274.960,80.090 275.787,79.984 264.908 L 79.894 255.662 79.819 265.152 M111.379 257.330 L 111.324 258.999 104.226 259.091 L 97.129 259.183 104.236 259.257 C 112.158 259.339,111.773 259.454,111.559 257.054 C 111.436 255.673,111.435 255.675,111.379 257.330 M168.238 262.679 C 168.238 266.539,168.284 268.074,168.340 266.091 C 168.396 264.107,168.396 260.949,168.340 259.073 C 168.284 257.197,168.238 258.820,168.238 262.679 M172.067 262.998 C 172.067 267.033,172.113 268.640,172.168 266.569 C 172.224 264.498,172.224 261.196,172.168 259.232 C 172.112 257.269,172.066 258.963,172.067 262.998 M213.526 257.416 L 213.557 259.171 220.973 259.180 L 228.390 259.189 221.069 259.094 L 213.749 258.999 213.622 257.331 L 213.496 255.662 213.526 257.416 M151.011 262.360 C 151.011 265.869,151.058 267.348,151.115 265.647 C 151.172 263.946,151.172 261.075,151.115 259.267 C 151.058 257.460,151.012 258.852,151.011 262.360 M191.645 259.250 C 193.804 259.305,197.249 259.305,199.301 259.249 C 201.352 259.194,199.585 259.149,195.375 259.149 C 191.164 259.149,189.486 259.194,191.645 259.250 M246.510 259.250 C 248.669 259.305,252.114 259.305,254.165 259.249 C 256.216 259.194,254.450 259.149,250.239 259.149 C 246.029 259.149,244.350 259.194,246.510 259.250 M280.449 259.247 C 281.625 259.309,283.635 259.309,284.914 259.248 C 286.194 259.188,285.231 259.138,282.775 259.137 C 280.319 259.137,279.272 259.186,280.449 259.247 M233.899 261.882 C 233.899 262.671,233.961 262.994,234.037 262.600 C 234.113 262.205,234.113 261.559,234.037 261.164 C 233.961 260.770,233.899 261.093,233.899 261.882 M62.274 267.687 L 62.201 274.608 60.526 274.725 L 58.852 274.842 60.536 274.901 C 62.669 274.976,62.551 275.436,62.440 267.456 L 62.347 260.766 62.274 267.687 M230.058 261.882 C 230.058 262.496,230.124 262.747,230.204 262.440 C 230.284 262.133,230.284 261.631,230.204 261.324 C 230.124 261.017,230.058 261.268,230.058 261.882 M91.033 265.231 C 91.034 267.512,91.084 268.403,91.146 267.212 C 91.207 266.020,91.207 264.154,91.145 263.065 C 91.083 261.976,91.032 262.951,91.033 265.231 M272.212 265.391 C 272.212 267.584,272.263 268.481,272.325 267.384 C 272.388 266.288,272.388 264.494,272.325 263.397 C 272.263 262.301,272.212 263.198,272.212 265.391 M289.437 265.391 C 289.437 267.584,289.488 268.481,289.550 267.384 C 289.613 266.288,289.613 264.494,289.550 263.397 C 289.488 262.301,289.437 263.198,289.437 265.391 M94.866 262.839 L 94.896 263.636 102.153 263.646 L 109.410 263.655 102.254 263.560 C 95.136 263.466,95.096 263.461,94.966 262.753 C 94.854 262.145,94.839 262.157,94.866 262.839 M190.845 263.715 C 192.389 263.773,194.829 263.773,196.268 263.714 C 197.706 263.655,196.443 263.607,193.461 263.607 C 190.478 263.608,189.301 263.656,190.845 263.715 M233.253 264.514 C 232.910 265.451,232.919 265.491,233.343 264.931 C 233.749 264.395,233.988 263.477,233.722 263.477 C 233.673 263.477,233.462 263.943,233.253 264.514 M213.468 269.617 L 213.397 274.960 215.391 274.900 L 217.384 274.839 215.558 274.725 L 213.732 274.610 213.636 269.442 L 213.540 264.274 213.468 269.617 M308.599 265.016 C 308.744 265.270,308.544 265.777,308.097 266.292 L 307.355 267.145 308.291 266.272 C 309.071 265.545,309.155 265.332,308.793 264.996 C 308.442 264.670,308.405 264.674,308.599 265.016 M74.322 267.783 C 74.917 268.397,75.476 268.900,75.564 268.900 C 75.651 268.900,75.236 268.397,74.641 267.783 C 74.046 267.169,73.487 266.667,73.400 266.667 C 73.312 266.667,73.727 267.169,74.322 267.783 M94.811 267.943 C 94.811 268.557,94.876 268.808,94.957 268.501 C 95.037 268.194,95.037 267.691,94.957 267.384 C 94.876 267.077,94.811 267.329,94.811 267.943 M220.510 267.861 C 222.054 267.920,224.494 267.920,225.933 267.861 C 227.371 267.802,226.108 267.754,223.126 267.754 C 220.144 267.754,218.966 267.803,220.510 267.861 M248.724 267.859 C 249.645 267.923,251.152 267.923,252.073 267.859 C 252.994 267.794,252.241 267.742,250.399 267.742 C 248.557 267.742,247.803 267.794,248.724 267.859 M340.032 271.451 L 340.032 274.641 338.289 274.641 L 336.547 274.641 336.436 271.770 L 336.326 268.898 336.345 271.849 L 336.364 274.801 338.357 274.896 L 340.351 274.991 340.351 271.626 C 340.351 269.776,340.279 268.262,340.191 268.262 C 340.104 268.262,340.032 269.697,340.032 271.451 M111.274 273.040 L 111.385 274.629 103.778 274.724 L 96.172 274.819 103.828 274.810 L 111.483 274.801 111.580 273.126 C 111.633 272.205,111.561 271.451,111.420 271.451 C 111.279 271.451,111.214 272.166,111.274 273.040 M122.401 274.871 C 122.967 274.942,123.972 274.943,124.634 274.874 C 125.296 274.805,124.833 274.747,123.604 274.746 C 122.376 274.744,121.835 274.801,122.401 274.871 M138.198 274.874 C 138.856 274.942,139.932 274.942,140.590 274.874 C 141.248 274.805,140.710 274.748,139.394 274.748 C 138.078 274.748,137.540 274.805,138.198 274.874 M158.931 274.879 C 160.467 274.937,162.978 274.937,164.514 274.879 C 166.049 274.820,164.793 274.772,161.722 274.772 C 158.652 274.772,157.396 274.820,158.931 274.879 M186.664 274.879 C 188.890 274.934,192.622 274.934,194.957 274.880 C 197.292 274.825,195.470 274.780,190.909 274.780 C 186.348 274.780,184.437 274.825,186.664 274.879 M244.099 274.870 C 244.581 274.943,245.371 274.943,245.853 274.870 C 246.336 274.797,245.941 274.737,244.976 274.737 C 244.011 274.737,243.616 274.797,244.099 274.870 M302.791 274.870 C 303.274 274.943,304.063 274.943,304.545 274.870 C 305.028 274.797,304.633 274.737,303.668 274.737 C 302.703 274.737,302.309 274.797,302.791 274.870 " stroke="none" fill="#214163" fill-rule="evenodd"></path></g></svg>